<mxfile host="app.diagrams.net" agent="Mozilla/5.0 (Windows NT 10.0; Win64; x64) AppleWebKit/537.36 (KHTML, like Gecko) Chrome/134.0.0.0 Safari/537.36" version="26.1.1">
  <diagram name="Page-1" id="13e1069c-82ec-6db2-03f1-153e76fe0fe0">
    <mxGraphModel dx="1311" dy="936" grid="1" gridSize="10" guides="1" tooltips="1" connect="1" arrows="1" fold="1" page="1" pageScale="1" pageWidth="1100" pageHeight="850" background="none" math="0" shadow="0">
      <root>
        <mxCell id="0" />
        <mxCell id="1" parent="0" />
        <mxCell id="7baba1c4bc27f4b0-2" value="NewTowerButton" style="shape=umlLifeline;perimeter=lifelinePerimeter;whiteSpace=wrap;html=1;container=1;collapsible=0;recursiveResize=0;outlineConnect=0;rounded=1;shadow=0;comic=0;labelBackgroundColor=none;strokeWidth=1;fontFamily=Verdana;fontSize=12;align=center;" parent="1" vertex="1">
          <mxGeometry x="350" y="80" width="120" height="580" as="geometry" />
        </mxCell>
        <mxCell id="eYP_Y39amCzkJ_lcemNL-10" style="edgeStyle=elbowEdgeStyle;shape=connector;rounded=1;orthogonalLoop=1;jettySize=auto;elbow=vertical;html=1;strokeColor=default;align=center;verticalAlign=bottom;fontFamily=Verdana;fontSize=12;fontColor=default;labelBackgroundColor=none;endArrow=block;" edge="1" parent="7baba1c4bc27f4b0-2" source="7baba1c4bc27f4b0-10" target="7baba1c4bc27f4b0-2">
          <mxGeometry relative="1" as="geometry" />
        </mxCell>
        <mxCell id="7baba1c4bc27f4b0-10" value="" style="html=1;points=[];perimeter=orthogonalPerimeter;rounded=0;shadow=0;comic=0;labelBackgroundColor=none;strokeWidth=1;fontFamily=Verdana;fontSize=12;align=center;" parent="7baba1c4bc27f4b0-2" vertex="1">
          <mxGeometry x="55" y="100" width="10" height="230" as="geometry" />
        </mxCell>
        <mxCell id="7baba1c4bc27f4b0-3" value="Tower" style="shape=umlLifeline;perimeter=lifelinePerimeter;whiteSpace=wrap;html=1;container=1;collapsible=0;recursiveResize=0;outlineConnect=0;rounded=1;shadow=0;comic=0;labelBackgroundColor=none;strokeWidth=1;fontFamily=Verdana;fontSize=12;align=center;" parent="1" vertex="1">
          <mxGeometry x="520" y="80" width="100" height="580" as="geometry" />
        </mxCell>
        <mxCell id="7baba1c4bc27f4b0-13" value="" style="html=1;points=[];perimeter=orthogonalPerimeter;rounded=0;shadow=0;comic=0;labelBackgroundColor=none;strokeWidth=1;fontFamily=Verdana;fontSize=12;align=center;" parent="7baba1c4bc27f4b0-3" vertex="1">
          <mxGeometry x="45" y="120" width="10" height="90" as="geometry" />
        </mxCell>
        <mxCell id="eYP_Y39amCzkJ_lcemNL-15" value="" style="html=1;points=[];perimeter=orthogonalPerimeter;rounded=0;shadow=0;comic=0;labelBackgroundColor=none;strokeWidth=1;fontFamily=Verdana;fontSize=12;align=center;" vertex="1" parent="7baba1c4bc27f4b0-3">
          <mxGeometry x="45" y="470" width="10" height="95" as="geometry" />
        </mxCell>
        <mxCell id="eYP_Y39amCzkJ_lcemNL-18" style="edgeStyle=elbowEdgeStyle;shape=connector;rounded=1;orthogonalLoop=1;jettySize=auto;elbow=vertical;html=1;strokeColor=default;align=center;verticalAlign=bottom;fontFamily=Verdana;fontSize=12;fontColor=default;labelBackgroundColor=none;endArrow=block;entryX=1.033;entryY=0.614;entryDx=0;entryDy=0;entryPerimeter=0;exitX=1.2;exitY=0.307;exitDx=0;exitDy=0;exitPerimeter=0;" edge="1" parent="7baba1c4bc27f4b0-3" source="eYP_Y39amCzkJ_lcemNL-15" target="eYP_Y39amCzkJ_lcemNL-15">
          <mxGeometry relative="1" as="geometry">
            <Array as="points">
              <mxPoint x="90" y="470" />
            </Array>
          </mxGeometry>
        </mxCell>
        <mxCell id="eYP_Y39amCzkJ_lcemNL-19" value="IsValidLocation" style="edgeLabel;html=1;align=center;verticalAlign=middle;resizable=0;points=[];fontFamily=Verdana;fontSize=12;fontColor=default;labelBackgroundColor=none;" vertex="1" connectable="0" parent="eYP_Y39amCzkJ_lcemNL-18">
          <mxGeometry x="-0.5111" y="-2" relative="1" as="geometry">
            <mxPoint x="33" y="-17" as="offset" />
          </mxGeometry>
        </mxCell>
        <mxCell id="eYP_Y39amCzkJ_lcemNL-7" style="edgeStyle=orthogonalEdgeStyle;rounded=0;orthogonalLoop=1;jettySize=auto;html=1;dashed=1;" edge="1" parent="7baba1c4bc27f4b0-3">
          <mxGeometry relative="1" as="geometry">
            <mxPoint x="45" y="150" as="sourcePoint" />
            <mxPoint x="-115.33333333333348" y="160" as="targetPoint" />
            <Array as="points">
              <mxPoint x="-65" y="160" />
              <mxPoint x="-65" y="160" />
            </Array>
          </mxGeometry>
        </mxCell>
        <mxCell id="eYP_Y39amCzkJ_lcemNL-9" value="return value" style="edgeLabel;html=1;align=center;verticalAlign=middle;resizable=0;points=[];fontFamily=Verdana;fontSize=12;fontColor=default;labelBackgroundColor=none;" vertex="1" connectable="0" parent="eYP_Y39amCzkJ_lcemNL-7">
          <mxGeometry x="-0.3569" y="1" relative="1" as="geometry">
            <mxPoint x="-25" y="-11" as="offset" />
          </mxGeometry>
        </mxCell>
        <mxCell id="eYP_Y39amCzkJ_lcemNL-48" style="edgeStyle=elbowEdgeStyle;shape=connector;rounded=1;orthogonalLoop=1;jettySize=auto;elbow=vertical;html=1;strokeColor=default;align=center;verticalAlign=bottom;fontFamily=Verdana;fontSize=12;fontColor=default;labelBackgroundColor=none;endArrow=block;" edge="1" parent="7baba1c4bc27f4b0-3" source="eYP_Y39amCzkJ_lcemNL-22" target="7baba1c4bc27f4b0-3">
          <mxGeometry relative="1" as="geometry" />
        </mxCell>
        <mxCell id="eYP_Y39amCzkJ_lcemNL-22" value="" style="html=1;points=[];perimeter=orthogonalPerimeter;rounded=0;shadow=0;comic=0;labelBackgroundColor=none;strokeWidth=1;fontFamily=Verdana;fontSize=12;align=center;" vertex="1" parent="7baba1c4bc27f4b0-3">
          <mxGeometry x="45" y="285" width="10" height="90" as="geometry" />
        </mxCell>
        <mxCell id="eYP_Y39amCzkJ_lcemNL-51" style="edgeStyle=elbowEdgeStyle;shape=connector;rounded=1;orthogonalLoop=1;jettySize=auto;elbow=vertical;html=1;strokeColor=default;align=center;verticalAlign=bottom;fontFamily=Verdana;fontSize=12;fontColor=default;labelBackgroundColor=none;endArrow=block;" edge="1" parent="7baba1c4bc27f4b0-3" source="eYP_Y39amCzkJ_lcemNL-22" target="eYP_Y39amCzkJ_lcemNL-22">
          <mxGeometry relative="1" as="geometry">
            <Array as="points">
              <mxPoint x="110" y="330" />
            </Array>
          </mxGeometry>
        </mxCell>
        <mxCell id="eYP_Y39amCzkJ_lcemNL-52" value="Upgrade()" style="edgeLabel;html=1;align=center;verticalAlign=middle;resizable=0;points=[];fontFamily=Verdana;fontSize=12;fontColor=default;labelBackgroundColor=none;" vertex="1" connectable="0" parent="eYP_Y39amCzkJ_lcemNL-51">
          <mxGeometry x="-0.7" y="1" relative="1" as="geometry">
            <mxPoint x="26" y="-9" as="offset" />
          </mxGeometry>
        </mxCell>
        <mxCell id="eYP_Y39amCzkJ_lcemNL-58" style="edgeStyle=elbowEdgeStyle;shape=connector;rounded=1;orthogonalLoop=1;jettySize=auto;elbow=vertical;html=1;strokeColor=default;align=center;verticalAlign=bottom;fontFamily=Verdana;fontSize=12;fontColor=default;labelBackgroundColor=none;endArrow=block;" edge="1" parent="7baba1c4bc27f4b0-3" source="eYP_Y39amCzkJ_lcemNL-53">
          <mxGeometry relative="1" as="geometry">
            <mxPoint x="50" y="430" as="targetPoint" />
          </mxGeometry>
        </mxCell>
        <mxCell id="eYP_Y39amCzkJ_lcemNL-60" style="edgeStyle=elbowEdgeStyle;shape=connector;rounded=1;orthogonalLoop=1;jettySize=auto;elbow=vertical;html=1;strokeColor=default;align=center;verticalAlign=bottom;fontFamily=Verdana;fontSize=12;fontColor=default;labelBackgroundColor=none;endArrow=block;entryX=1.055;entryY=0.806;entryDx=0;entryDy=0;entryPerimeter=0;exitX=0.848;exitY=0.423;exitDx=0;exitDy=0;exitPerimeter=0;" edge="1" parent="7baba1c4bc27f4b0-3" source="eYP_Y39amCzkJ_lcemNL-53" target="eYP_Y39amCzkJ_lcemNL-53">
          <mxGeometry relative="1" as="geometry">
            <mxPoint x="130" y="422.5" as="targetPoint" />
            <Array as="points">
              <mxPoint x="120" y="430" />
            </Array>
          </mxGeometry>
        </mxCell>
        <mxCell id="eYP_Y39amCzkJ_lcemNL-61" value="Sell()" style="edgeLabel;html=1;align=center;verticalAlign=middle;resizable=0;points=[];fontFamily=Verdana;fontSize=12;fontColor=default;labelBackgroundColor=none;" vertex="1" connectable="0" parent="eYP_Y39amCzkJ_lcemNL-60">
          <mxGeometry x="-0.6421" y="3" relative="1" as="geometry">
            <mxPoint x="10" y="-6" as="offset" />
          </mxGeometry>
        </mxCell>
        <mxCell id="eYP_Y39amCzkJ_lcemNL-53" value="" style="html=1;points=[];perimeter=orthogonalPerimeter;rounded=0;shadow=0;comic=0;labelBackgroundColor=none;strokeWidth=1;fontFamily=Verdana;fontSize=12;align=center;" vertex="1" parent="7baba1c4bc27f4b0-3">
          <mxGeometry x="45" y="400" width="10" height="45" as="geometry" />
        </mxCell>
        <mxCell id="7baba1c4bc27f4b0-7" value="Character" style="shape=umlLifeline;perimeter=lifelinePerimeter;whiteSpace=wrap;html=1;container=1;collapsible=0;recursiveResize=0;outlineConnect=0;rounded=1;shadow=0;comic=0;labelBackgroundColor=none;strokeWidth=1;fontFamily=Verdana;fontSize=12;align=center;" parent="1" vertex="1">
          <mxGeometry x="80" y="80" width="100" height="580" as="geometry" />
        </mxCell>
        <mxCell id="7baba1c4bc27f4b0-25" value="" style="html=1;points=[];perimeter=orthogonalPerimeter;rounded=0;shadow=0;comic=0;labelBackgroundColor=none;strokeColor=#000000;strokeWidth=1;fillColor=#FFFFFF;fontFamily=Verdana;fontSize=12;fontColor=#000000;align=center;" parent="7baba1c4bc27f4b0-7" vertex="1">
          <mxGeometry x="45" y="90" width="10" height="190" as="geometry" />
        </mxCell>
        <mxCell id="7baba1c4bc27f4b0-8" value="GardenUI" style="shape=umlLifeline;perimeter=lifelinePerimeter;whiteSpace=wrap;html=1;container=1;collapsible=0;recursiveResize=0;outlineConnect=0;rounded=1;shadow=0;comic=0;labelBackgroundColor=none;strokeWidth=1;fontFamily=Verdana;fontSize=12;align=center;" parent="1" vertex="1">
          <mxGeometry x="220" y="80" width="100" height="580" as="geometry" />
        </mxCell>
        <mxCell id="7baba1c4bc27f4b0-9" value="" style="html=1;points=[];perimeter=orthogonalPerimeter;rounded=0;shadow=0;comic=0;labelBackgroundColor=none;strokeWidth=1;fontFamily=Verdana;fontSize=12;align=center;" parent="7baba1c4bc27f4b0-8" vertex="1">
          <mxGeometry x="45" y="100" width="10" height="440" as="geometry" />
        </mxCell>
        <mxCell id="7baba1c4bc27f4b0-11" value="onClick()" style="html=1;verticalAlign=bottom;endArrow=block;entryX=0;entryY=0;labelBackgroundColor=none;fontFamily=Verdana;fontSize=12;edgeStyle=elbowEdgeStyle;elbow=vertical;" parent="1" source="7baba1c4bc27f4b0-9" target="7baba1c4bc27f4b0-10" edge="1">
          <mxGeometry relative="1" as="geometry">
            <mxPoint x="340" y="190" as="sourcePoint" />
            <mxPoint as="offset" />
          </mxGeometry>
        </mxCell>
        <mxCell id="7baba1c4bc27f4b0-14" value="getCost()" style="html=1;verticalAlign=bottom;endArrow=block;entryX=0;entryY=0;labelBackgroundColor=none;fontFamily=Verdana;fontSize=12;edgeStyle=elbowEdgeStyle;elbow=vertical;" parent="1" source="7baba1c4bc27f4b0-10" target="7baba1c4bc27f4b0-13" edge="1">
          <mxGeometry relative="1" as="geometry">
            <mxPoint x="490" y="200" as="sourcePoint" />
            <mxPoint as="offset" />
          </mxGeometry>
        </mxCell>
        <mxCell id="7baba1c4bc27f4b0-40" value="Menu holding all tower choices" style="shape=note;whiteSpace=wrap;html=1;size=14;verticalAlign=top;align=left;spacingTop=-6;rounded=0;shadow=0;comic=0;labelBackgroundColor=none;strokeWidth=1;fontFamily=Verdana;fontSize=12" parent="1" vertex="1">
          <mxGeometry x="220" width="100" height="65" as="geometry" />
        </mxCell>
        <mxCell id="7baba1c4bc27f4b0-41" value="Handles purchasing new tower" style="shape=note;whiteSpace=wrap;html=1;size=14;verticalAlign=top;align=left;spacingTop=-6;rounded=0;shadow=0;comic=0;labelBackgroundColor=none;strokeWidth=1;fontFamily=Verdana;fontSize=12" parent="1" vertex="1">
          <mxGeometry x="360" width="100" height="65" as="geometry" />
        </mxCell>
        <mxCell id="7baba1c4bc27f4b0-42" value="When purchased new tower is made and location selected. Handles other tower logic" style="shape=note;whiteSpace=wrap;html=1;size=14;verticalAlign=top;align=left;spacingTop=-6;rounded=0;shadow=0;comic=0;labelBackgroundColor=none;strokeWidth=1;fontFamily=Verdana;fontSize=12" parent="1" vertex="1">
          <mxGeometry x="490" width="160" height="65" as="geometry" />
        </mxCell>
        <mxCell id="7baba1c4bc27f4b0-46" value="Character stores balance need for purchase" style="shape=note;whiteSpace=wrap;html=1;size=14;verticalAlign=top;align=left;spacingTop=-6;rounded=0;shadow=0;comic=0;labelBackgroundColor=none;strokeWidth=1;fontFamily=Verdana;fontSize=12" parent="1" vertex="1">
          <mxGeometry x="70" width="130" height="65" as="geometry" />
        </mxCell>
        <mxCell id="eYP_Y39amCzkJ_lcemNL-54" style="edgeStyle=elbowEdgeStyle;shape=connector;rounded=1;orthogonalLoop=1;jettySize=auto;elbow=vertical;html=1;strokeColor=default;align=center;verticalAlign=bottom;fontFamily=Verdana;fontSize=12;fontColor=default;labelBackgroundColor=none;endArrow=block;" edge="1" parent="1" source="eYP_Y39amCzkJ_lcemNL-1" target="7baba1c4bc27f4b0-3">
          <mxGeometry relative="1" as="geometry">
            <Array as="points">
              <mxPoint x="310" y="509" />
            </Array>
          </mxGeometry>
        </mxCell>
        <mxCell id="eYP_Y39amCzkJ_lcemNL-55" value="Right Click" style="edgeLabel;html=1;align=center;verticalAlign=middle;resizable=0;points=[];fontFamily=Verdana;fontSize=12;fontColor=default;labelBackgroundColor=none;" vertex="1" connectable="0" parent="eYP_Y39amCzkJ_lcemNL-54">
          <mxGeometry x="0.0767" y="-3" relative="1" as="geometry">
            <mxPoint x="32" y="-9" as="offset" />
          </mxGeometry>
        </mxCell>
        <mxCell id="eYP_Y39amCzkJ_lcemNL-56" value="Sell" style="edgeLabel;html=1;align=center;verticalAlign=middle;resizable=0;points=[];fontFamily=Verdana;fontSize=12;fontColor=default;labelBackgroundColor=none;" vertex="1" connectable="0" parent="eYP_Y39amCzkJ_lcemNL-54">
          <mxGeometry x="0.3656" y="-1" relative="1" as="geometry">
            <mxPoint x="-53" y="-20" as="offset" />
          </mxGeometry>
        </mxCell>
        <mxCell id="eYP_Y39amCzkJ_lcemNL-1" value="Player" style="shape=umlActor;verticalLabelPosition=bottom;verticalAlign=top;html=1;outlineConnect=0;" vertex="1" parent="1">
          <mxGeometry x="50" y="365" width="30" height="60" as="geometry" />
        </mxCell>
        <mxCell id="eYP_Y39amCzkJ_lcemNL-2" style="edgeStyle=orthogonalEdgeStyle;rounded=0;orthogonalLoop=1;jettySize=auto;html=1;entryX=0;entryY=0.489;entryDx=0;entryDy=0;entryPerimeter=0;" edge="1" parent="1" source="eYP_Y39amCzkJ_lcemNL-1" target="7baba1c4bc27f4b0-9">
          <mxGeometry relative="1" as="geometry">
            <mxPoint x="200" y="395" as="sourcePoint" />
          </mxGeometry>
        </mxCell>
        <mxCell id="eYP_Y39amCzkJ_lcemNL-3" value="Left Click" style="edgeLabel;html=1;align=center;verticalAlign=middle;resizable=0;points=[];" vertex="1" connectable="0" parent="eYP_Y39amCzkJ_lcemNL-2">
          <mxGeometry x="0.3097" y="3" relative="1" as="geometry">
            <mxPoint x="1" as="offset" />
          </mxGeometry>
        </mxCell>
        <mxCell id="eYP_Y39amCzkJ_lcemNL-39" value="Place/Buy" style="edgeLabel;html=1;align=center;verticalAlign=middle;resizable=0;points=[];fontFamily=Verdana;fontSize=12;fontColor=default;labelBackgroundColor=none;" vertex="1" connectable="0" parent="eYP_Y39amCzkJ_lcemNL-2">
          <mxGeometry x="-0.7354" y="2" relative="1" as="geometry">
            <mxPoint x="96" y="-13" as="offset" />
          </mxGeometry>
        </mxCell>
        <mxCell id="eYP_Y39amCzkJ_lcemNL-16" style="edgeStyle=orthogonalEdgeStyle;shape=connector;rounded=1;orthogonalLoop=1;jettySize=auto;elbow=vertical;html=1;strokeColor=default;align=center;verticalAlign=bottom;fontFamily=Verdana;fontSize=12;fontColor=default;labelBackgroundColor=none;endArrow=block;" edge="1" parent="1" source="eYP_Y39amCzkJ_lcemNL-1">
          <mxGeometry relative="1" as="geometry">
            <mxPoint x="80" y="425" as="sourcePoint" />
            <mxPoint x="564" y="580" as="targetPoint" />
            <Array as="points">
              <mxPoint x="65" y="570" />
              <mxPoint x="360" y="570" />
            </Array>
          </mxGeometry>
        </mxCell>
        <mxCell id="eYP_Y39amCzkJ_lcemNL-43" value="Drag" style="edgeLabel;html=1;align=center;verticalAlign=middle;resizable=0;points=[];fontFamily=Verdana;fontSize=12;fontColor=default;labelBackgroundColor=none;" vertex="1" connectable="0" parent="eYP_Y39amCzkJ_lcemNL-16">
          <mxGeometry x="0.2701" y="2" relative="1" as="geometry">
            <mxPoint x="5" y="-8" as="offset" />
          </mxGeometry>
        </mxCell>
        <mxCell id="eYP_Y39amCzkJ_lcemNL-45" value="Move" style="edgeLabel;html=1;align=center;verticalAlign=middle;resizable=0;points=[];fontFamily=Verdana;fontSize=12;fontColor=default;labelBackgroundColor=none;" vertex="1" connectable="0" parent="eYP_Y39amCzkJ_lcemNL-16">
          <mxGeometry x="0.2778" y="-1" relative="1" as="geometry">
            <mxPoint y="-31" as="offset" />
          </mxGeometry>
        </mxCell>
        <mxCell id="eYP_Y39amCzkJ_lcemNL-23" style="edgeStyle=elbowEdgeStyle;shape=connector;rounded=1;orthogonalLoop=1;jettySize=auto;elbow=vertical;html=1;strokeColor=default;align=center;verticalAlign=bottom;fontFamily=Verdana;fontSize=12;fontColor=default;labelBackgroundColor=none;endArrow=block;" edge="1" parent="1" source="eYP_Y39amCzkJ_lcemNL-1" target="7baba1c4bc27f4b0-3">
          <mxGeometry relative="1" as="geometry">
            <mxPoint x="550" y="428" as="targetPoint" />
            <Array as="points">
              <mxPoint x="400" y="430" />
              <mxPoint x="390" y="430" />
            </Array>
          </mxGeometry>
        </mxCell>
        <mxCell id="eYP_Y39amCzkJ_lcemNL-41" value="Hold Left Click" style="edgeLabel;html=1;align=center;verticalAlign=middle;resizable=0;points=[];fontFamily=Verdana;fontSize=12;fontColor=default;labelBackgroundColor=none;" vertex="1" connectable="0" parent="eYP_Y39amCzkJ_lcemNL-23">
          <mxGeometry x="0.0546" y="1" relative="1" as="geometry">
            <mxPoint x="12" y="-9" as="offset" />
          </mxGeometry>
        </mxCell>
        <mxCell id="eYP_Y39amCzkJ_lcemNL-44" value="Upgrade" style="edgeLabel;html=1;align=center;verticalAlign=middle;resizable=0;points=[];fontFamily=Verdana;fontSize=12;fontColor=default;labelBackgroundColor=none;" vertex="1" connectable="0" parent="eYP_Y39amCzkJ_lcemNL-23">
          <mxGeometry x="0.2771" y="-4" relative="1" as="geometry">
            <mxPoint x="-45" y="-34" as="offset" />
          </mxGeometry>
        </mxCell>
        <mxCell id="eYP_Y39amCzkJ_lcemNL-24" style="edgeStyle=elbowEdgeStyle;shape=connector;rounded=1;orthogonalLoop=1;jettySize=auto;elbow=vertical;html=1;strokeColor=default;align=center;verticalAlign=bottom;fontFamily=Verdana;fontSize=12;fontColor=default;labelBackgroundColor=none;endArrow=block;" edge="1" parent="1">
          <mxGeometry relative="1" as="geometry">
            <mxPoint x="407.67" y="220" as="sourcePoint" />
            <mxPoint x="132.3366666666665" y="220" as="targetPoint" />
          </mxGeometry>
        </mxCell>
        <mxCell id="eYP_Y39amCzkJ_lcemNL-25" value="canAfford()" style="edgeLabel;html=1;align=center;verticalAlign=middle;resizable=0;points=[];fontFamily=Verdana;fontSize=12;fontColor=default;labelBackgroundColor=none;" vertex="1" connectable="0" parent="eYP_Y39amCzkJ_lcemNL-24">
          <mxGeometry x="-0.4746" y="-2" relative="1" as="geometry">
            <mxPoint y="-13" as="offset" />
          </mxGeometry>
        </mxCell>
        <mxCell id="eYP_Y39amCzkJ_lcemNL-26" style="edgeStyle=elbowEdgeStyle;shape=connector;rounded=1;orthogonalLoop=1;jettySize=auto;elbow=vertical;html=1;entryX=0.117;entryY=0.326;entryDx=0;entryDy=0;entryPerimeter=0;strokeColor=default;align=center;verticalAlign=bottom;fontFamily=Verdana;fontSize=12;fontColor=default;labelBackgroundColor=none;endArrow=block;dashed=1;" edge="1" parent="1" source="7baba1c4bc27f4b0-25" target="7baba1c4bc27f4b0-10">
          <mxGeometry relative="1" as="geometry" />
        </mxCell>
        <mxCell id="eYP_Y39amCzkJ_lcemNL-29" value="return true" style="edgeLabel;html=1;align=center;verticalAlign=middle;resizable=0;points=[];fontFamily=Verdana;fontSize=12;fontColor=default;labelBackgroundColor=none;" vertex="1" connectable="0" parent="eYP_Y39amCzkJ_lcemNL-26">
          <mxGeometry x="0.3853" y="-2" relative="1" as="geometry">
            <mxPoint x="8" y="-17" as="offset" />
          </mxGeometry>
        </mxCell>
        <mxCell id="eYP_Y39amCzkJ_lcemNL-30" style="edgeStyle=elbowEdgeStyle;shape=connector;rounded=1;orthogonalLoop=1;jettySize=auto;elbow=vertical;html=1;strokeColor=default;align=center;verticalAlign=bottom;fontFamily=Verdana;fontSize=12;fontColor=default;labelBackgroundColor=none;endArrow=block;" edge="1" parent="1" source="7baba1c4bc27f4b0-10" target="7baba1c4bc27f4b0-7">
          <mxGeometry relative="1" as="geometry" />
        </mxCell>
        <mxCell id="eYP_Y39amCzkJ_lcemNL-31" value="if canAfford true" style="edgeLabel;html=1;align=center;verticalAlign=middle;resizable=0;points=[];fontFamily=Verdana;fontSize=12;fontColor=default;labelBackgroundColor=none;" vertex="1" connectable="0" parent="eYP_Y39amCzkJ_lcemNL-30">
          <mxGeometry x="-0.5908" y="-2" relative="1" as="geometry">
            <mxPoint x="-8" y="-13" as="offset" />
          </mxGeometry>
        </mxCell>
        <mxCell id="eYP_Y39amCzkJ_lcemNL-32" value="add(-1 * &amp;lt;getCost&amp;gt;)" style="edgeLabel;html=1;align=center;verticalAlign=middle;resizable=0;points=[];fontFamily=Verdana;fontSize=12;fontColor=default;labelBackgroundColor=none;" vertex="1" connectable="0" parent="eYP_Y39amCzkJ_lcemNL-30">
          <mxGeometry x="0.6441" y="-1" relative="1" as="geometry">
            <mxPoint x="22" y="-14" as="offset" />
          </mxGeometry>
        </mxCell>
        <mxCell id="eYP_Y39amCzkJ_lcemNL-37" style="edgeStyle=elbowEdgeStyle;shape=connector;rounded=1;orthogonalLoop=1;jettySize=auto;elbow=vertical;html=1;entryX=0.033;entryY=0.852;entryDx=0;entryDy=0;entryPerimeter=0;strokeColor=default;align=center;verticalAlign=bottom;fontFamily=Verdana;fontSize=12;fontColor=default;labelBackgroundColor=none;endArrow=block;" edge="1" parent="1" source="7baba1c4bc27f4b0-10" target="7baba1c4bc27f4b0-13">
          <mxGeometry relative="1" as="geometry" />
        </mxCell>
        <mxCell id="eYP_Y39amCzkJ_lcemNL-38" value="NewTower()" style="edgeLabel;html=1;align=center;verticalAlign=middle;resizable=0;points=[];fontFamily=Verdana;fontSize=12;fontColor=default;labelBackgroundColor=none;" vertex="1" connectable="0" parent="eYP_Y39amCzkJ_lcemNL-37">
          <mxGeometry x="0.0022" y="-1" relative="1" as="geometry">
            <mxPoint y="-13" as="offset" />
          </mxGeometry>
        </mxCell>
      </root>
    </mxGraphModel>
  </diagram>
</mxfile>
